HIERARCHY
ROOT root
{
	OFFSET 0.000000 0.000000 0.000000
	CHANNELS 6 Xposition Yposition Zposition Zrotation Yrotation Xrotation
	JOINT lhip
	{
		OFFSET 0.058581 -0.082280 -0.017664
		CHANNELS 3 Zrotation Yrotation Xrotation
		JOINT lknee
		{
			OFFSET 0.043451 -0.386469 0.008037
			CHANNELS 3 Zrotation Yrotation Xrotation
			JOINT lankle
			{
				OFFSET -0.014790 -0.426874 -0.037428
				CHANNELS 3 Zrotation Yrotation Xrotation
				JOINT ltoe
				{
					OFFSET 0.041054 -0.060286 0.122042
					CHANNELS 3 Zrotation Yrotation Xrotation
					End Site
					{
						OFFSET 0.000000 0.000000 0.000000
					}
				}
			}
		}
	}
	JOINT rhip
	{
		OFFSET -0.060310 -0.090513 -0.013543
		CHANNELS 3 Zrotation Yrotation Xrotation
		JOINT rknee
		{
			OFFSET -0.043257 -0.383688 -0.004843
			CHANNELS 3 Zrotation Yrotation Xrotation
			JOINT rankle
			{
				OFFSET 0.019056 -0.420046 -0.034562
				CHANNELS 3 Zrotation Yrotation Xrotation
				JOINT rtoe
				{
					OFFSET -0.034840 -0.062106 0.130323
					CHANNELS 3 Zrotation Yrotation Xrotation
					End Site
					{
						OFFSET 0.000000 0.000000 0.000000
					}
				}
			}
		}
	}
	JOINT lowerback
	{
		OFFSET 0.004439 0.124404 -0.038385
		CHANNELS 3 Zrotation Yrotation Xrotation
		JOINT upperback
		{
			OFFSET 0.004488 0.137956 0.026820
			CHANNELS 3 Zrotation Yrotation Xrotation
			JOINT chest
			{
				OFFSET -0.002265 0.056032 0.002855
				CHANNELS 3 Zrotation Yrotation Xrotation
				JOINT lowerneck
				{
					OFFSET -0.013390 0.211636 -0.033468
					CHANNELS 3 Zrotation Yrotation Xrotation
					JOINT upperneck
					{
						OFFSET 0.010113 0.088937 0.050410
						CHANNELS 3 Zrotation Yrotation Xrotation
						End Site
						{
							OFFSET 0.000000 0.000000 0.000000
						}
					}
				}
				JOINT lclavicle
				{
					OFFSET 0.071702 0.114000 -0.018898
					CHANNELS 3 Zrotation Yrotation Xrotation
					JOINT lshoulder
					{
						OFFSET 0.122921 0.045205 -0.019046
						CHANNELS 3 Zrotation Yrotation Xrotation
						JOINT lelbow
						{
							OFFSET 0.255332 -0.015649 -0.022946
							CHANNELS 3 Zrotation Yrotation Xrotation
							JOINT lwrist
							{
								OFFSET 0.265709 0.012698 -0.007375
								CHANNELS 3 Zrotation Yrotation Xrotation
								End Site
								{
									OFFSET 0.000000 0.000000 0.000000
								}
							}
						}
					}
				}
				JOINT rclavicle
				{
					OFFSET -0.082954 0.112472 -0.023707
					CHANNELS 3 Zrotation Yrotation Xrotation
					JOINT rshoulder
					{
						OFFSET -0.113228 0.046853 -0.008472
						CHANNELS 3 Zrotation Yrotation Xrotation
						JOINT relbow
						{
							OFFSET -0.260127 -0.014369 -0.031269
							CHANNELS 3 Zrotation Yrotation Xrotation
							JOINT rwrist
							{
								OFFSET -0.269108 0.006794 -0.006027
								CHANNELS 3 Zrotation Yrotation Xrotation
								End Site
								{
									OFFSET 0.000000 0.000000 0.000000
								}
							}
						}
					}
				}
			}
		}
	}
}
MOTION
Frames: 11
Frame Time: 0.033333
-1.758351 1.417843 0.978545 70.926547 -1.589720 88.343462 -5.702011 -1.562945 -3.855658 1.961910 -4.999168 5.934047 3.573934 13.909471 -13.425410 0.000000 -0.000000 0.000000 2.122204 -2.720278 -4.569552 -6.364212 -5.395150 3.544251 -0.005181 -13.089419 -13.949462 0.000000 -0.000000 0.000000 -2.323075 4.720912 6.252832 0.749787 -2.636121 14.845705 0.455029 1.814711 -7.394447 -4.761382 5.408590 -5.161336 4.202650 -0.109911 2.517993 -25.353370 -8.846611 1.945605 -53.861562 -6.418400 13.388874 9.948248 -24.944367 -3.364675 -11.843558 -18.289591 12.049522 28.526754 17.753425 9.426356 50.857173 5.597846 11.859985 -10.264401 23.485232 -6.059359 8.684273 15.452774 4.798957 
-1.758106 1.418180 0.978497 70.476441 -1.551720 88.334183 -5.679829 -1.555519 -3.969396 1.890305 -4.853369 6.263309 3.565413 14.168123 -13.556577 0.000000 -0.000000 0.000000 2.157645 -2.596044 -4.605197 -6.362077 -5.098305 3.525297 -0.097495 -13.095198 -13.948832 0.000000 -0.000000 0.000000 -2.201139 4.715767 6.203582 0.729582 -2.605937 14.774411 0.373184 1.860166 -7.471248 -4.682428 5.212508 -5.248947 4.009274 -0.166555 2.718174 -25.381826 -8.620129 1.714896 -53.814464 -6.193475 13.665669 9.906160 -25.242356 -3.154395 -11.745984 -17.914887 11.715476 28.533521 17.654436 9.252461 50.990481 5.551654 12.263200 -10.309737 24.402238 -5.689472 8.701228 15.215204 4.755168 
-1.757882 1.418533 0.978384 70.216602 -1.555827 88.397708 -5.711278 -1.530770 -4.146785 1.880807 -4.728188 6.485937 3.616642 14.214010 -13.564509 0.000000 -0.000000 0.000000 2.074775 -2.579001 -4.764012 -6.284766 -4.901339 3.695896 0.068723 -12.866441 -13.960346 0.000000 -0.000000 0.000000 -2.154317 4.673690 5.965342 0.706188 -2.635274 14.769328 0.291198 1.945809 -7.428960 -4.728170 5.294185 -5.359265 3.928275 -0.165159 2.772103 -25.176189 -8.449967 1.483315 -54.003205 -6.142686 13.778919 9.839975 -25.394443 -3.096498 -11.576051 -18.067786 11.710128 28.556538 17.560119 9.280109 51.044210 5.756547 12.386234 -10.136607 25.198426 -5.568450 8.545172 15.509134 4.886261 
-1.757336 1.419109 0.978117 69.859807 -1.637898 88.406043 -5.813364 -1.404151 -4.123985 1.828069 -4.544919 6.485330 3.604734 14.309710 -13.674613 0.000000 -0.000000 0.000000 1.986851 -2.465433 -4.832484 -6.328172 -4.811409 3.731550 0.031118 -12.801805 -13.952420 0.000000 -0.000000 0.000000 -2.092461 4.703187 5.952705 0.611303 -2.506221 14.333218 0.166951 1.997018 -7.493801 -4.522855 4.919066 -5.029779 3.871977 -0.316000 3.098760 -25.156100 -8.360118 1.437460 -54.057154 -5.977994 13.982983 9.938626 -25.333979 -3.041663 -11.374710 -18.192482 11.708269 28.477196 17.497620 9.263236 51.358539 5.657702 12.733265 -10.069517 25.913532 -5.204790 8.466279 15.633835 4.738331 
-1.756692 1.419304 0.978080 69.695512 -1.651860 88.499599 -5.844958 -1.345287 -4.140726 1.833359 -4.520581 6.438912 3.657268 14.347915 -13.676464 0.000000 -0.000000 0.000000 1.936682 -2.440033 -4.923759 -6.295971 -4.675898 3.791074 -0.077643 -12.899883 -14.059186 0.000000 -0.000000 0.000000 -2.036076 4.605704 5.878714 0.543989 -2.488816 14.028673 0.047441 2.095341 -7.704481 -4.515353 4.771138 -4.793008 3.902748 -0.224934 3.410636 -25.103808 -8.013865 1.262328 -54.112320 -5.765561 14.178937 9.826465 -25.369635 -2.914856 -11.447254 -18.020340 11.656180 28.470878 17.350633 9.121230 51.560719 5.524274 13.037332 -9.803313 25.993194 -4.822117 8.565078 15.322852 4.745273 
-1.755078 1.419796 0.978104 69.626826 -1.699836 88.683320 -5.987536 -1.340065 -4.063482 1.879800 -4.588178 6.115266 3.657623 14.372069 -13.667429 0.000000 -0.000000 0.000000 1.809365 -2.475052 -4.927282 -6.266412 -4.641411 3.549351 0.138410 -12.783881 -13.988761 0.000000 -0.000000 0.000000 -1.946625 4.536731 5.332183 0.489391 -2.500004 13.892438 -0.134439 2.134757 -8.012614 -4.478430 4.723113 -4.590471 3.972612 -0.135489 4.041192 -25.153547 -7.680232 1.123082 -54.178075 -5.607565 14.438952 9.838456 -25.045324 -2.800807 -11.545265 -18.113756 11.918883 28.573562 17.191162 8.968797 51.813782 5.567077 13.253478 -9.644476 25.155257 -4.576745 8.787750 15.365851 5.032878 
-1.752762 1.419562 0.978179 69.247511 -1.674816 88.796119 -6.073663 -1.019890 -3.595299 2.044832 -4.622964 5.264072 3.721716 14.499419 -13.515319 0.000000 -0.000000 0.000000 1.812592 -2.524809 -4.883560 -6.246408 -4.410090 3.478195 0.081760 -12.657172 -13.999099 0.000000 -0.000000 0.000000 -1.828125 4.557280 4.509543 0.488225 -2.343815 14.051934 -0.294851 2.320519 -8.218898 -4.482908 4.515948 -4.449209 3.773771 -0.255587 4.281983 -25.184219 -7.432208 0.983854 -54.274524 -5.538901 14.627536 9.790802 -24.689677 -3.122801 -11.572244 -17.833522 11.919936 28.741204 17.027553 8.892953 51.843756 5.505901 13.387437 -9.547421 24.500928 -4.547013 8.865708 15.160281 5.473937 
-1.749728 1.419270 0.978066 69.262543 -1.703486 88.650204 -6.249278 -1.062715 -2.810786 2.248925 -4.690616 4.522196 3.759527 14.642788 -13.464679 0.000000 -0.000000 0.000000 1.782987 -2.590147 -4.334001 -6.418735 -4.327812 3.108003 0.205335 -12.737918 -14.110800 0.000000 -0.000000 0.000000 -1.741691 4.582226 3.972945 0.491615 -2.285750 13.953639 -0.355044 2.343367 -8.477834 -4.541519 4.594674 -4.295581 3.825255 -0.070179 4.950363 -25.149755 -7.178347 1.038971 -54.530266 -5.395722 14.838285 9.930222 -24.417515 -2.791680 -12.307905 -17.575464 12.006864 28.744166 16.916052 8.954635 52.065764 5.329737 13.552411 -9.521619 23.514843 -4.549126 9.224538 14.927464 5.473648 
-1.746941 1.418970 0.977595 69.277099 -1.669531 88.648807 -6.330483 -0.949525 -2.379126 2.406287 -4.955826 4.000709 3.713338 14.708138 -13.397727 0.000000 -0.000000 0.000000 1.796972 -2.550032 -4.024390 -6.445007 -4.240566 2.873830 0.257279 -12.942195 -14.185651 0.000000 -0.000000 0.000000 -1.674130 4.607503 3.270100 0.597511 -2.171424 13.942891 -0.402074 2.405946 -8.657125 -4.366971 4.123336 -4.357124 3.649699 -0.257450 5.353762 -25.156373 -6.683595 0.620015 -54.721426 -5.439969 15.087384 9.427237 -23.947960 -2.608247 -12.524822 -17.248635 12.139298 28.694579 16.548275 8.678652 51.961787 5.101094 13.708354 -8.998523 22.775854 -4.409944 9.506903 14.661031 5.765723 
-1.743080 1.418753 0.976767 69.537560 -1.677883 88.540625 -6.450580 -1.120886 -2.067303 2.386401 -4.785634 4.078620 3.707200 14.774973 -13.545090 0.000000 -0.000000 0.000000 1.695042 -2.621562 -3.728916 -6.509789 -4.465875 3.108195 0.279473 -13.034029 -14.302407 0.000000 -0.000000 0.000000 -1.633353 4.620365 2.800470 0.681299 -2.069468 13.267944 -0.337778 2.232887 -8.795257 -4.400521 4.392212 -3.941923 3.769257 0.077077 5.735379 -25.158957 -6.313639 0.684754 -55.113774 -5.224136 15.257224 9.493762 -23.681960 -2.365477 -12.434201 -17.632921 11.845826 28.628601 16.130024 8.536854 52.277863 5.009300 13.781867 -8.891828 21.234292 -4.232994 9.574957 14.620280 5.752520 
-1.740533 1.418393 0.976521 69.659421 -1.565418 88.183227 -6.409295 -1.070223 -1.552521 2.354853 -4.888136 4.184994 3.692862 14.787466 -13.669572 0.000000 -0.000000 0.000000 1.730411 -2.596013 -3.149656 -6.452847 -4.503939 3.129481 0.286308 -13.081479 -14.426117 0.000000 -0.000000 0.000000 -1.495496 4.640036 2.532057 0.757712 -2.051114 13.344140 -0.319951 2.391747 -8.988811 -4.293687 3.943534 -4.071260 3.650427 -0.020422 5.734265 -25.425474 -6.400570 0.719427 -54.958352 -5.273310 15.262072 9.181512 -23.465804 -2.086821 -12.288179 -17.551296 12.054626 28.804192 16.166191 8.556477 52.082821 4.577138 13.703973 -9.030752 20.714590 -4.446509 9.493970 14.709441 5.674672 
